<svg width="524" height="399" viewBox="0 0 524 399" fill="none" xmlns="http://www.w3.org/2000/svg" xmlns:xlink="http://www.w3.org/1999/xlink">
<path d="M406.656 54.8532C406.139 47.6941 400.18 42.1504 393.002 42.1504L272.586 42.1504C266.001 42.1504 260.349 37.4623 259.132 30.9908L255.402 11.1596C254.185 4.68807 248.533 -7.52534e-06 241.948 -7.79776e-06L13.6911 -1.72408e-05C5.65471 -1.75733e-05 -0.65315 6.88981 0.0542169 14.8951L2.45278 42.0388C2.45809 42.0988 2.41084 42.1504 2.35066 42.1504C2.29024 42.1504 2.24291 42.2023 2.24858 42.2625L34.5736 385.519C35.2358 392.552 41.1398 397.926 48.2033 397.926L416.745 397.926C424.695 397.926 430.973 391.177 430.399 383.249L406.656 54.8532Z" fill="url(#paint0_linear_7_1210)"/>
<path d="M132.285 79.3391C125.978 79.3392 120.487 83.6483 118.989 89.7747L47.6527 381.503C45.5446 390.125 52.073 398.442 60.9486 398.442L431.24 398.442C437.427 398.441 442.845 394.291 444.455 388.317L523.088 96.5891C525.433 87.8911 518.881 79.3391 509.872 79.3391L132.285 79.3391Z" fill="url(#paint1_linear_7_1210)"/>
<path d="M225.908 200.915C211.26 196.55 195.843 204.881 191.476 219.524C188.621 229.096 178.505 263.051 175.828 272.036C171.461 286.68 179.794 302.088 194.442 306.458C209.09 310.824 224.502 302.488 228.874 287.849C231.764 278.148 241.796 244.491 244.522 235.337C248.889 220.694 240.551 205.285 225.908 200.915Z" fill="#001B66"/>
<path d="M311.718 169.111C297.07 164.745 281.653 173.076 277.286 187.725C276.175 191.45 272.035 205.325 267.236 221.413C263.741 233.136 259.726 246.62 256.11 258.752C251.192 275.258 247.017 289.266 245.923 292.93C243.068 302.497 237.314 310.672 229.274 316.571C221.514 322.266 211.958 325.4 202.362 325.4C199.809 325.4 197.261 325.178 194.744 324.747C202.117 332.278 211.451 338.097 222.27 341.316C255.488 351.203 290.4 332.936 301.397 300.367C301.606 299.803 301.802 299.22 301.975 298.633C304.865 288.933 327.606 212.682 330.332 203.533C334.699 188.889 326.366 173.481 311.718 169.111Z" fill="#001B66"/>
<path d="M397.546 137.161C382.898 132.795 367.485 141.126 363.114 155.77C361.882 159.909 355.15 182.497 347.688 207.512C347.59 207.877 347.484 208.246 347.377 208.61C346.021 213.162 339.706 234.346 333.347 255.667C326.935 277.175 320.478 298.825 319.024 303.706C318.771 304.559 318.486 305.422 318.175 306.284C313.666 319.514 306.008 331.153 295.794 340.418C296.71 340.733 297.635 341.036 298.573 341.316C331.951 351.247 367.032 332.767 377.847 299.914C377.855 299.896 377.864 299.878 377.869 299.86C378.069 299.318 378.251 298.767 378.42 298.202C381.311 288.502 413.443 180.732 416.174 171.583C420.54 156.939 412.203 141.526 397.555 137.161H397.546Z" fill="#001B66"/>
<defs>
<linearGradient id="paint0_linear_7_1210" x1="215.259" y1="-5.88846" x2="215.259" y2="398.466" gradientUnits="userSpaceOnUse">
<stop stop-color="#0040FF"/>
<stop offset="1" stop-color="#328FF8"/>
</linearGradient>
<linearGradient id="paint1_linear_7_1210" x1="348.96" y1="79.3387" x2="348.96" y2="398.442" gradientUnits="userSpaceOnUse">
<stop stop-color="#76C3FC"/>
<stop offset="1" stop-color="#328FF8"/>
</linearGradient>
<g id="stroke0_7_1210" data-figma-scatter-ref="stroke0_7_1210_ref" data-figma-scatter="f0.25_w0.06_aj180_sj0.65_r0_s7877138107896014395_sw10.579">
</g>
<path id="stroke0_7_1210_ref" d="M416.746 397.926L48.2029 397.926C41.1394 397.926 35.2354 392.552 34.5732 385.519L2.24819 42.2625C2.24252 42.2024 2.28984 42.1504 2.35026 42.1504C2.41044 42.1504 2.45768 42.0988 2.45238 42.0388L0.0538278 14.8951C-0.653553 6.88983 5.65432 -1.75733e-05 13.6907 -1.72408e-05L241.948 -7.79777e-06C248.533 -7.52535e-06 254.185 4.68808 255.402 11.1596L259.132 30.9908C260.349 37.4623 266.001 42.1504 272.586 42.1504L393.002 42.1504C400.179 42.1504 406.138 47.6941 406.656 54.8532L430.4 383.248C430.973 391.177 424.695 397.926 416.746 397.926Z"/>
</defs>
</svg>
